<?xml version="1.0" standalone="no"?>
<!DOCTYPE svg PUBLIC "-//W3C//DTD SVG 20010904//EN"
 "http://www.w3.org/TR/2001/REC-SVG-20010904/DTD/svg10.dtd">
<svg version="1.0" xmlns="http://www.w3.org/2000/svg"
 width="512.000000pt" height="512.000000pt" viewBox="0 0 512.000000 512.000000"
 preserveAspectRatio="xMidYMid meet">
<metadata>
Created by potrace 1.14, written by Peter Selinger 2001-2017
</metadata>
<g transform="translate(0.000000,512.000000) scale(0.100000,-0.100000)"
fill="#000000" stroke="none">
<path d="M4336 4669 c-202 -29 -418 -132 -541 -258 -22 -22 -50 -41 -61 -41
-12 0 -143 25 -290 55 -148 30 -280 57 -294 60 -14 3 -34 7 -45 9 -11 2 -67
14 -125 26 -58 13 -115 25 -126 27 -12 3 -32 -1 -45 -8 -20 -10 -109 -79 -129
-99 -3 -3 -26 -22 -52 -43 -43 -34 -48 -43 -48 -77 0 -36 28 -80 51 -80 3 0
112 -50 240 -111 129 -61 276 -131 328 -155 l94 -44 -19 -21 c-11 -12 -66 -70
-124 -129 -58 -59 -137 -141 -177 -182 -78 -81 -64 -76 -207 -81 l-49 -2 -46
87 c-25 48 -43 90 -40 92 6 6 59 14 100 15 14 1 53 21 86 46 81 61 85 78 38
192 -20 48 -44 96 -52 105 -20 22 -67 32 -91 19 -16 -8 -32 -2 -87 37 -49 33
-81 48 -114 52 -45 5 -46 6 -65 58 -14 39 -31 63 -70 95 -28 23 -62 52 -75 63
l-23 21 42 -1 c74 -3 119 54 94 119 -11 29 -56 42 -134 40 -81 -2 -232 -15
-240 -20 -3 -2 -26 -6 -50 -10 -127 -18 -365 -100 -509 -175 -245 -128 -481
-333 -647 -565 -129 -180 -248 -457 -293 -682 -51 -255 -46 -541 15 -793 46
-190 147 -418 258 -583 36 -55 66 -100 66 -102 0 -2 -46 -72 -103 -157 -120
-180 -196 -327 -232 -453 -70 -244 -7 -440 170 -521 72 -33 143 -46 260 -45
88 0 130 4 270 27 118 19 360 98 535 174 76 33 371 178 491 242 53 29 78 36
130 37 98 3 149 8 214 20 33 6 74 14 90 17 40 7 145 34 170 44 11 4 54 20 95
35 545 202 979 700 1119 1286 26 109 26 122 -1 154 -27 30 -60 38 -92 23 -31
-13 -40 -34 -66 -146 -12 -51 -29 -115 -39 -143 -16 -49 -17 -50 -30 -27 -7
13 -27 35 -46 49 -18 14 -54 51 -80 82 -25 31 -51 57 -58 58 -7 0 -47 6 -89
13 -83 13 -126 5 -145 -28 -9 -17 -15 -19 -94 -30 -39 -6 -54 -16 -115 -77
-38 -39 -98 -93 -133 -120 -35 -27 -70 -58 -78 -68 -8 -13 -13 -54 -14 -118
-1 -85 2 -107 26 -168 15 -38 33 -75 39 -82 6 -7 40 -20 76 -29 115 -29 147
-90 105 -195 -12 -30 -25 -71 -29 -91 -8 -44 -7 -44 -136 -111 -119 -63 -282
-127 -359 -142 -13 -2 -30 -6 -39 -9 -22 -7 -66 -14 -122 -22 -25 -3 -56 -8
-70 -10 -14 -3 -93 -5 -175 -5 -152 1 -318 22 -443 57 -56 15 -223 74 -231 81
-3 2 12 37 33 78 l37 75 42 1 c63 1 76 5 121 37 26 19 63 33 102 40 34 6 107
31 161 56 55 25 106 46 113 46 36 0 149 43 176 67 17 16 56 50 87 77 46 40 61
62 86 125 17 42 31 87 31 100 0 23 -32 60 -114 129 -33 29 -37 37 -29 55 6 12
9 58 7 103 -2 77 -5 85 -57 180 -49 87 -53 100 -39 111 137 109 172 145 172
182 0 29 -39 81 -61 81 -5 0 -32 23 -59 51 -33 34 -54 67 -65 102 -37 117
-109 126 -205 27 -3 -3 -30 -25 -60 -50 -30 -25 -64 -53 -75 -63 -20 -18 -20
-18 -29 12 -5 17 -35 58 -67 91 -58 61 -64 78 -44 138 6 18 -13 63 -38 90
l-21 23 27 112 c33 134 33 141 6 191 -20 38 -20 40 -3 108 14 51 22 68 35 68
33 0 68 22 77 49 18 50 14 222 -8 341 -11 62 -20 117 -20 120 0 4 -23 37 -51
74 -28 38 -47 71 -43 76 7 6 92 30 107 30 3 0 10 -13 17 -30 13 -32 43 -45
125 -56 73 -9 153 -73 179 -142 12 -34 35 -67 67 -97 44 -41 53 -46 92 -44 47
3 49 2 124 -53 29 -21 67 -40 85 -42 17 -2 34 -8 36 -15 4 -12 7 -12 -71 -17
-86 -6 -111 -23 -152 -103 -19 -38 -32 -78 -30 -90 2 -11 23 -52 46 -91 23
-39 40 -72 38 -74 -2 -2 -37 -6 -77 -8 l-74 -5 -79 -79 c-68 -68 -79 -83 -79
-113 0 -19 7 -42 16 -52 8 -9 80 -40 159 -69 l143 -52 -10 -30 c-39 -110 55
-227 173 -216 48 5 49 5 54 -26 3 -17 7 -44 10 -61 3 -16 10 -57 15 -90 5 -33
12 -73 15 -90 12 -65 45 -94 100 -86 21 3 86 45 151 97 34 27 43 42 53 91 7
32 17 72 22 88 4 17 10 41 13 55 2 14 18 81 35 150 17 69 33 135 36 147 4 16
72 67 230 173 124 82 225 148 225 146 0 -2 27 -106 59 -232 33 -126 76 -292
95 -369 29 -112 41 -145 61 -162 40 -36 74 -28 140 32 22 20 66 57 97 82 32
25 61 55 65 67 3 11 5 145 3 296 -1 151 -4 358 -5 459 l-2 184 46 31 c158 107
298 298 364 494 29 88 27 147 -8 208 -35 60 -88 93 -175 109 -8 1 -42 -2 -74
-6z m104 -174 c42 -51 -75 -289 -205 -417 -86 -85 -845 -602 -1355 -923 -80
-51 -157 -98 -170 -105 -24 -13 -24 -12 -10 6 35 45 176 204 320 358 95 102
645 653 807 808 67 64 143 131 168 148 145 100 405 173 445 125z m-1525 -125
c22 -5 51 -11 65 -14 14 -2 104 -21 200 -41 96 -19 220 -45 275 -56 138 -28
137 -28 141 -32 2 -1 -37 -42 -85 -90 -79 -78 -91 -87 -112 -78 -25 10 -106
47 -324 151 -71 34 -161 76 -198 93 l-69 32 27 22 c30 26 27 26 80 13z m-1129
-203 c24 -33 34 -62 46 -132 9 -49 15 -117 14 -149 -1 -50 -4 -59 -20 -62 -38
-5 -57 -41 -92 -172 l-36 -131 25 -51 25 -50 -29 -112 c-16 -62 -29 -122 -29
-134 0 -12 14 -40 30 -63 28 -38 30 -46 23 -94 -4 -29 -6 -59 -4 -67 2 -8 33
-47 71 -85 50 -52 71 -83 80 -115 l12 -44 -54 -50 c-29 -27 -80 -73 -113 -103
-206 -188 -460 -451 -634 -658 -47 -55 -92 -108 -101 -118 -16 -18 -20 -15
-70 64 -107 167 -189 375 -232 591 -18 92 -22 148 -23 298 0 209 5 262 41 410
100 404 347 754 691 976 50 33 54 34 96 22 43 -11 47 -10 98 23 29 18 67 35
84 37 16 2 31 5 32 6 13 13 44 -4 69 -37z m2240 -600 c6 -646 8 -606 -18 -627
-24 -19 -35 -13 -43 28 -2 9 -22 89 -45 177 -89 345 -110 428 -107 431 2 2
210 144 211 144 1 0 2 -69 2 -153z m-1322 -261 c-21 -25 -42 -46 -46 -46 -8 0
-140 47 -178 63 -22 10 -19 12 35 17 33 3 98 6 144 8 l83 4 -38 -46z m315
-278 c-7 -13 -11 -24 -10 -26 3 -3 -47 -220 -56 -242 -6 -15 -28 82 -39 175
l-6 50 54 32 c63 39 73 40 57 11z m-727 -255 c10 -16 30 -42 47 -59 l30 -32
-62 -50 c-34 -28 -73 -61 -87 -74 -14 -13 -46 -41 -71 -63 -164 -146 -225
-201 -317 -290 -423 -405 -749 -807 -902 -1110 -52 -103 -54 -113 -55 -184 0
-59 5 -85 22 -116 41 -76 117 -130 226 -160 43 -11 47 -14 22 -15 -16 -1 -39
-3 -50 -6 -34 -6 -198 -6 -235 1 -57 10 -114 40 -143 74 -15 18 -27 38 -28 44
0 7 -2 21 -5 32 -38 175 81 433 381 830 54 72 101 132 104 135 3 3 28 32 56
65 181 217 499 540 745 754 47 41 87 77 90 81 12 15 202 170 209 170 3 0 14
-12 23 -27z m17 -454 c41 -75 45 -131 11 -177 -14 -19 -23 -44 -22 -64 1 -34
7 -41 121 -138 57 -49 52 -69 -32 -143 -54 -47 -75 -59 -133 -73 -38 -9 -106
-34 -151 -54 -96 -45 -133 -57 -193 -64 -27 -4 -62 -18 -88 -36 -37 -26 -51
-30 -110 -30 -39 0 -76 -5 -85 -13 -10 -7 -42 -60 -71 -119 l-53 -107 -60 35
c-33 20 -73 46 -89 59 l-28 23 39 48 c22 27 44 54 50 60 5 6 21 24 34 40 167
199 375 416 587 611 49 45 118 109 154 142 36 33 70 61 75 61 6 0 25 -27 44
-61z m1357 -157 c75 -77 99 -119 103 -180 2 -39 -5 -54 -73 -155 -80 -121 -95
-138 -189 -236 l-62 -64 -12 49 c-6 27 -12 62 -12 77 -1 41 -119 152 -169 162
-51 9 -72 23 -72 45 0 10 -3 21 -7 23 -5 3 -6 28 -5 56 4 49 6 53 60 95 32 24
78 67 104 94 41 44 52 51 100 57 53 7 108 32 108 48 0 5 14 6 30 2 19 -4 55
-32 96 -73z m-2346 -937 c174 -114 448 -227 625 -260 11 -2 22 -4 25 -5 25 -5
-275 -107 -420 -141 -306 -74 -520 -35 -520 94 0 41 178 367 200 367 3 0 44
-25 90 -55z"/>
</g>
</svg>
